<?xml version="1.0" encoding="utf-8"?>
<!-- Generator: Adobe Illustrator 24.3.0, SVG Export Plug-In . SVG Version: 6.00 Build 0)  -->
<svg version="1.1" id="圖層_1" xmlns="http://www.w3.org/2000/svg" xmlns:xlink="http://www.w3.org/1999/xlink" x="0px" y="0px"
	 viewBox="0 0 28 28" style="enable-background:new 0 0 28 28;" xml:space="preserve">
<style type="text/css">
	.st0{fill:#ABBED3;}
</style>
<g id="Group_81" transform="translate(-1014.319 -682.398)">
	<path id="Path_530" class="st0" d="M1022.2,693.2c0,0.6,0.4,1,1,1h10.2c0.6,0,1-0.4,1-1s-0.4-1-1-1h-10.2
		C1022.7,692.2,1022.2,692.6,1022.2,693.2z"/>
	<path id="Path_531" class="st0" d="M1033.4,697h-10.2c-0.6,0-1,0.4-1,1s0.4,1,1,1h10.2c0.6,0,1-0.4,1-1S1034,697,1033.4,697z"/>
	<path id="Path_532" class="st0" d="M1033.4,701.7h-10.2c-0.6,0-1,0.4-1,1s0.4,1,1,1h10.2c0.6,0,1-0.4,1-1S1034,701.7,1033.4,701.7z
		"/>
	<path id="Path_533" class="st0" d="M1031.4,683.7l0,0.9c-0.1,1.7-1.5,3-3.2,2.9c-1.6-0.1-2.9-1.3-2.9-2.9l0-0.9h-8.2v24.8h0.9
		c0.2,0,0.3,0.1,0.6,0.5c0.7,1.1,2.1,1.5,3.2,0.8c0.3-0.2,0.6-0.5,0.8-0.8c0.3-0.4,0.4-0.5,0.6-0.5s0.3,0.1,0.6,0.5
		c0.7,1.1,2.1,1.5,3.2,0.8c0.3-0.2,0.6-0.5,0.8-0.8c0.3-0.4,0.4-0.5,0.6-0.5s0.3,0.1,0.6,0.5c0.7,1.1,2.1,1.5,3.2,0.8
		c0.3-0.2,0.6-0.5,0.8-0.8c0.3-0.4,0.4-0.5,0.6-0.5s0.3,0.1,0.6,0.5c0.7,1.1,2.1,1.5,3.2,0.8c0.3-0.2,0.6-0.5,0.8-0.8
		c0.3-0.4,0.4-0.5,0.6-0.5h0.9v-24.8H1031.4z M1037.8,706.9c-0.4,0.2-0.8,0.5-1.1,0.9c-0.3,0.4-0.4,0.5-0.6,0.5s-0.3-0.1-0.6-0.5
		c-0.7-1.1-2.1-1.5-3.2-0.8c-0.3,0.2-0.6,0.5-0.8,0.8c-0.3,0.4-0.4,0.5-0.6,0.5s-0.3-0.1-0.6-0.5c-0.7-1.1-2.1-1.5-3.2-0.8
		c-0.3,0.2-0.6,0.5-0.8,0.8c-0.3,0.4-0.4,0.5-0.6,0.5c-0.2,0-0.3-0.1-0.6-0.5c-0.7-1.1-2.1-1.5-3.2-0.8c-0.3,0.2-0.6,0.5-0.8,0.8
		c-0.3,0.4-0.4,0.5-0.6,0.5s-0.3-0.1-0.6-0.5c-0.3-0.4-0.7-0.7-1.1-0.9v-21.4h4.7c0.6,2.6,3.2,4.3,5.8,3.7c1.8-0.4,3.3-1.8,3.7-3.7
		h4.7L1037.8,706.9z"/>
	<path id="Path_534" class="st0" d="M1028.3,686.2c1,0,1.8-0.8,1.8-1.8s-0.8-1.8-1.8-1.8c-1,0-1.8,0.8-1.8,1.8
		C1026.5,685.4,1027.3,686.2,1028.3,686.2C1028.3,686.2,1028.3,686.2,1028.3,686.2z"/>
</g>
</svg>
