<?xml version="1.0" encoding="utf-8"?>
<!-- Generator: Adobe Illustrator 24.3.0, SVG Export Plug-In . SVG Version: 6.00 Build 0)  -->
<svg version="1.1" id="圖層_1" xmlns="http://www.w3.org/2000/svg" xmlns:xlink="http://www.w3.org/1999/xlink" x="0px" y="0px"
	 viewBox="0 0 28 28" style="enable-background:new 0 0 28 28;" xml:space="preserve">
<style type="text/css">
	.st0{fill:url(#Path_632_1_);}
	.st1{fill:url(#Ellipse_50_1_);}
	.st2{fill:url(#Path_633_1_);}
	.st3{fill:url(#Path_634_1_);}
</style>
<g id="Group_731" transform="translate(-1014.319 -815.092)">
	
		<linearGradient id="Path_632_1_" gradientUnits="userSpaceOnUse" x1="111.0288" y1="1349.9789" x2="112.0288" y2="1349.9789" gradientTransform="matrix(22.575 0 0 -26.3969 -1489.438 36464.8945)">
		<stop  offset="0" style="stop-color:#00DCFF"/>
		<stop  offset="1" style="stop-color:#00C2FF"/>
	</linearGradient>
	<path id="Path_632" class="st0" d="M1031.4,816.4l0,0.9c-0.1,1.7-1.5,3-3.2,2.9c-1.6-0.1-2.9-1.3-2.9-2.9l0-0.9h-8.2v24.8h0.9
		c0.2,0,0.3,0.1,0.6,0.5c0.7,1.1,2.1,1.5,3.2,0.8c0.3-0.2,0.6-0.5,0.8-0.8c0.3-0.4,0.4-0.5,0.6-0.5s0.3,0.1,0.6,0.5
		c0.7,1.1,2.1,1.5,3.2,0.8c0.3-0.2,0.6-0.5,0.8-0.8c0.3-0.4,0.4-0.5,0.6-0.5s0.3,0.1,0.6,0.5c0.7,1.1,2.1,1.5,3.2,0.8
		c0.3-0.2,0.6-0.5,0.8-0.8c0.3-0.4,0.4-0.5,0.6-0.5s0.3,0.1,0.6,0.5c0.7,1.1,2.1,1.5,3.2,0.8c0.3-0.2,0.6-0.5,0.8-0.8
		c0.3-0.4,0.4-0.5,0.6-0.5h0.9v-24.8H1031.4z M1033.4,836.4h-10.2c-0.6,0-1-0.4-1-1s0.4-1,1-1h10.2c0.6,0,1,0.4,1,1
		S1034,836.4,1033.4,836.4z M1033.4,831.7h-10.2c-0.6,0-1-0.4-1-1s0.4-1,1-1h10.2c0.6,0,1,0.4,1,1S1034,831.7,1033.4,831.7z
		 M1033.4,826.9h-10.2c-0.6,0-1-0.4-1-1s0.4-1,1-1h10.2c0.6,0,1,0.4,1,1S1034,826.9,1033.4,826.9z"/>
	
		<linearGradient id="Ellipse_50_1_" gradientUnits="userSpaceOnUse" x1="337.1342" y1="1221.395" x2="338.1342" y2="1221.395" gradientTransform="matrix(3.536 0 0 -3.536 -165.5579 5135.9868)">
		<stop  offset="0" style="stop-color:#00DCFF"/>
		<stop  offset="1" style="stop-color:#00C2FF"/>
	</linearGradient>
	<circle id="Ellipse_50" class="st1" cx="1028.3" cy="817.1" r="1.8"/>
	<g id="Group_730">
		
			<linearGradient id="Path_633_1_" gradientUnits="userSpaceOnUse" x1="337.638" y1="1214.3231" x2="337.638" y2="1221.7041" gradientTransform="matrix(3.5359 0 0 -3.5361 -165.5565 5136.084)">
			<stop  offset="0" style="stop-color:#00D0FF"/>
			<stop  offset="1" style="stop-color:#57E7FF"/>
		</linearGradient>
		<path id="Path_633" class="st2" d="M1028.3,818.9c1,0,1.8-0.8,1.8-1.8c0-1-0.8-1.8-1.8-1.8s-1.8,0.8-1.8,1.8c0,0,0,0,0,0
			C1026.5,818.1,1027.3,818.9,1028.3,818.9L1028.3,818.9z"/>
		
			<linearGradient id="Path_634_1_" gradientUnits="userSpaceOnUse" x1="111.5454" y1="1348.1783" x2="111.5454" y2="1349.2294" gradientTransform="matrix(22.566 0 0 -24.819 -1488.8228 34302.5312)">
			<stop  offset="0" style="stop-color:#00D0FF"/>
			<stop  offset="1" style="stop-color:#57E7FF"/>
		</linearGradient>
		<path id="Path_634" class="st3" d="M1031.4,816.4l0,0.9c-0.1,1.7-1.5,3-3.2,2.9c-1.6-0.1-2.9-1.3-2.9-2.9l0-0.9h-8.2v3.3l5.5,5.5
			c0.2-0.2,0.4-0.3,0.7-0.3h10.2c0.6,0,1,0.4,1,1s-0.4,1-1,1h-9.2l2.8,2.8h6.4c0.6,0,1,0.4,1,1s-0.4,1-1,1h-4.4l2.8,2.8h1.7
			c0.6,0,1,0.4,1,1c0,0.4-0.3,0.8-0.7,0.9l4.9,4.9c0,0,0.1,0,0.1,0h0.9v-24.8H1031.4z"/>
	</g>
</g>
</svg>
