<?xml version="1.0" encoding="utf-8"?>
<!-- Generator: Adobe Illustrator 24.3.0, SVG Export Plug-In . SVG Version: 6.00 Build 0)  -->
<svg version="1.1" id="圖層_1" xmlns="http://www.w3.org/2000/svg" xmlns:xlink="http://www.w3.org/1999/xlink" x="0px" y="0px"
	 viewBox="0 0 28 28" style="enable-background:new 0 0 28 28;" xml:space="preserve">
<style type="text/css">
	.st0{fill:url(#Path_622_1_);}
	.st1{fill:url(#Path_623_1_);}
	.st2{fill:url(#Path_624_1_);}
	.st3{fill:url(#Path_625_1_);}
	.st4{fill:url(#Path_626_1_);}
	.st5{fill:url(#Path_627_1_);}
	.st6{fill:url(#Path_628_1_);}
	.st7{fill:url(#Path_629_1_);}
</style>
<g id="Group_728" transform="translate(-1070.512 -810.865)">
	<g id="Group_726">
		
			<linearGradient id="Path_622_1_" gradientUnits="userSpaceOnUse" x1="159.6042" y1="1331.1637" x2="160.6042" y2="1331.1637" gradientTransform="matrix(27.8 0 0 -15.41 -3366.3933 21343.4258)">
			<stop  offset="0" style="stop-color:#00DCFF"/>
			<stop  offset="1" style="stop-color:#00C2FF"/>
		</linearGradient>
		<path id="Path_622" class="st0" d="M1070.6,822.5V835c0,1.6,1.3,2.9,2.9,2.9l0,0h22c1.6,0,2.9-1.3,2.9-2.9v0v-12.5H1070.6z
			 M1086.5,834.1h-2v-4.7c-0.3,0.2-0.6,0.4-0.9,0.6c-0.4,0.2-0.7,0.3-1.1,0.4v-1.6c0.6-0.2,1.1-0.4,1.6-0.8c0.4-0.3,0.7-0.7,0.9-1.1
			h1.6L1086.5,834.1z"/>
		
			<linearGradient id="Path_623_1_" gradientUnits="userSpaceOnUse" x1="413.0127" y1="1276.6906" x2="414.0127" y2="1276.6906" gradientTransform="matrix(3.2881 0 0 -5.9363 -281.2617 8393.6348)">
			<stop  offset="0" style="stop-color:#00DCFF"/>
			<stop  offset="1" style="stop-color:#00C2FF"/>
		</linearGradient>
		<path id="Path_623" class="st1" d="M1078.4,817.7L1078.4,817.7c0.9,0,1.6-0.7,1.6-1.6v-2.7c0-0.9-0.7-1.6-1.7-1.6
			c-0.9,0-1.6,0.7-1.6,1.6v2.7C1076.8,817,1077.5,817.7,1078.4,817.7C1078.4,817.7,1078.4,817.7,1078.4,817.7z"/>
		
			<linearGradient id="Path_624_1_" gradientUnits="userSpaceOnUse" x1="159.6042" y1="1282.3188" x2="160.6042" y2="1282.3188" gradientTransform="matrix(27.8 0 0 -6.339 -3366.3923 8946.502)">
			<stop  offset="0" style="stop-color:#00DCFF"/>
			<stop  offset="1" style="stop-color:#00C2FF"/>
		</linearGradient>
		<path id="Path_624" class="st2" d="M1098.4,817.3c0-1.4-1.1-2.6-2.6-2.6h-2.8v1.4c0,1.7-1.4,3.1-3.2,3.1c-1.7,0-3.1-1.4-3.1-3.1
			v-1.4h-5.2v1.4c0,1.7-1.4,3.1-3.2,3.1c-1.7,0-3.1-1.4-3.1-3.1v-1.4h-2.1c-1.4,0-2.5,1.1-2.6,2.6v3.8h27.8L1098.4,817.3z"/>
		
			<linearGradient id="Path_625_1_" gradientUnits="userSpaceOnUse" x1="413.0127" y1="1276.6906" x2="414.0127" y2="1276.6906" gradientTransform="matrix(3.2881 0 0 -5.9363 -269.7829 8393.6348)">
			<stop  offset="0" style="stop-color:#00DCFF"/>
			<stop  offset="1" style="stop-color:#00C2FF"/>
		</linearGradient>
		<path id="Path_625" class="st3" d="M1089.9,817.7L1089.9,817.7c0.9,0,1.6-0.7,1.7-1.6v-2.7c0-0.9-0.7-1.6-1.7-1.6
			c-0.9,0-1.6,0.7-1.6,1.6v2.7C1088.2,817,1089,817.7,1089.9,817.7C1089.9,817.7,1089.9,817.7,1089.9,817.7z"/>
	</g>
	<g id="Group_727">
		
			<linearGradient id="Path_626_1_" gradientUnits="userSpaceOnUse" x1="177.5288" y1="1330.6697" x2="177.5288" y2="1332.2617" gradientTransform="matrix(18.379 0 0 -15.41 -2173.5852 21343.4258)">
			<stop  offset="0" style="stop-color:#00D0FF"/>
			<stop  offset="1" style="stop-color:#57E7FF"/>
		</linearGradient>
		<path id="Path_626" class="st4" d="M1084.9,826.9h1.6v2.2l8.9,8.9h0.1c1.6,0,2.9-1.3,2.9-2.9v0v-12.5H1080l4.7,4.7
			C1084.8,827.1,1084.9,827,1084.9,826.9z"/>
		
			<linearGradient id="Path_627_1_" gradientUnits="userSpaceOnUse" x1="413.5127" y1="1272.7986" x2="413.5127" y2="1276.9355" gradientTransform="matrix(3.2881 0 0 -5.9363 -281.2619 8393.6348)">
			<stop  offset="0" style="stop-color:#00D0FF"/>
			<stop  offset="1" style="stop-color:#57E7FF"/>
		</linearGradient>
		<path id="Path_627" class="st5" d="M1078.4,817.7L1078.4,817.7c0.9,0,1.6-0.7,1.6-1.6v-2.7c0-0.9-0.7-1.6-1.7-1.6
			c-0.9,0-1.6,0.7-1.6,1.6v2.7C1076.8,817,1077.5,817.7,1078.4,817.7C1078.4,817.7,1078.4,817.7,1078.4,817.7z"/>
		
			<linearGradient id="Path_628_1_" gradientUnits="userSpaceOnUse" x1="162.4062" y1="1279.1591" x2="162.4062" y2="1283.0291" gradientTransform="matrix(26.0369 0 0 -6.338 -3143.155 8945.168)">
			<stop  offset="0" style="stop-color:#00D0FF"/>
			<stop  offset="1" style="stop-color:#57E7FF"/>
		</linearGradient>
		<path id="Path_628" class="st6" d="M1098.4,817.3c0-1.4-1.1-2.6-2.6-2.6h-2.8v1.4c0,1.7-1.4,3.1-3.2,3.1c-1.7,0-3.1-1.4-3.1-3.1
			v-1.4h-5.2v1.4c0,1.7-1.4,3.1-3.2,3.1c-1.7,0-3.1-1.4-3.1-3.1v-1.4h-2.1c-0.3,0-0.5,0.1-0.8,0.1l6.2,6.2h19.8L1098.4,817.3z"/>
		
			<linearGradient id="Path_629_1_" gradientUnits="userSpaceOnUse" x1="413.5127" y1="1272.7986" x2="413.5127" y2="1276.9355" gradientTransform="matrix(3.2881 0 0 -5.9363 -269.7838 8393.6348)">
			<stop  offset="0" style="stop-color:#00D0FF"/>
			<stop  offset="1" style="stop-color:#57E7FF"/>
		</linearGradient>
		<path id="Path_629" class="st7" d="M1089.9,817.7L1089.9,817.7c0.9,0,1.6-0.7,1.7-1.6v-2.7c0-0.9-0.7-1.6-1.7-1.6
			c-0.9,0-1.6,0.7-1.6,1.6v2.7C1088.2,817,1089,817.7,1089.9,817.7C1089.9,817.7,1089.9,817.7,1089.9,817.7z"/>
	</g>
</g>
</svg>
