<?xml version="1.0" encoding="utf-8"?>
<!-- Generator: Adobe Illustrator 24.3.0, SVG Export Plug-In . SVG Version: 6.00 Build 0)  -->
<svg version="1.1" id="圖層_1" xmlns="http://www.w3.org/2000/svg" xmlns:xlink="http://www.w3.org/1999/xlink" x="0px" y="0px"
	 viewBox="0 0 28 28" style="enable-background:new 0 0 28 28;" xml:space="preserve">
<style type="text/css">
	.st0{fill:#ABBED3;}
</style>
<g id="Group_79" transform="translate(-1070.512 -681.578)">
	<path id="Path_525" class="st0" d="M1070.6,693.2v12.5c0,1.6,1.3,2.9,2.9,2.9l0,0h22c1.6,0,2.9-1.3,2.9-2.9v0v-12.5H1070.6z
		 M1096.6,705.7c0,0.6-0.5,1.1-1.1,1.1h-22c-0.6,0-1.1-0.5-1.1-1.1V695h24.2V705.7z"/>
	<path id="Path_526" class="st0" d="M1084.5,700.1v4.7h2v-7.2h-1.6c-0.2,0.4-0.5,0.8-0.9,1.1c-0.5,0.4-1,0.6-1.6,0.8v1.6
		c0.4-0.1,0.8-0.3,1.1-0.4C1083.9,700.5,1084.3,700.3,1084.5,700.1z"/>
	<path id="Path_527" class="st0" d="M1098.4,688c0-1.4-1.1-2.6-2.6-2.6h-4.3v-1.3c0-0.9-0.7-1.6-1.7-1.6c-0.9,0-1.6,0.7-1.6,1.6v1.3
		h-8.2v-1.3c0-0.9-0.7-1.6-1.7-1.6c-0.9,0-1.6,0.7-1.6,1.6v1.3h-3.6c-1.4,0-2.5,1.1-2.6,2.6v3.8h27.8L1098.4,688z M1096.6,690h-24.2
		v-2c0-0.4,0.3-0.8,0.8-0.8h3.7c0.2,0.7,0.8,1.2,1.6,1.2h0c0.7,0,1.4-0.5,1.6-1.2h8.3c0.2,0.7,0.8,1.2,1.6,1.2h0
		c0.7,0,1.4-0.5,1.6-1.2h4.4c0.4,0,0.8,0.3,0.8,0.8L1096.6,690z"/>
</g>
</svg>
