<?xml version="1.0" encoding="utf-8"?>
<!-- Generator: Adobe Illustrator 24.3.0, SVG Export Plug-In . SVG Version: 6.00 Build 0)  -->
<svg version="1.1" id="圖層_1" xmlns="http://www.w3.org/2000/svg" xmlns:xlink="http://www.w3.org/1999/xlink" x="0px" y="0px"
	 viewBox="0 0 28 28" style="enable-background:new 0 0 28 28;" xml:space="preserve">
<style type="text/css">
	.st0{fill:url(#Path_582_1_);}
	.st1{fill:url(#Path_583_1_);}
</style>
<g id="Group_675" transform="translate(-931.573 -819.106)">
	
		<linearGradient id="Path_582_1_" gradientUnits="userSpaceOnUse" x1="20.6648" y1="1353.3883" x2="21.6648" y2="1353.3883" gradientTransform="matrix(27.8004 0 0 -26.0464 357.1832 36083.9805)">
		<stop  offset="0" style="stop-color:#00DCFF"/>
		<stop  offset="1" style="stop-color:#00C2FF"/>
	</linearGradient>
	<path id="Path_582" class="st0" d="M959.4,831.9c0-0.1-0.1-0.2-0.1-0.3c-0.1-0.4-0.4-0.8-0.7-1.1l-11.6-9.9
		c-0.7-0.7-1.9-0.8-2.6-0.1c0,0,0,0,0,0l-11.8,10c-0.5,0.4-0.7,0.9-0.8,1.5c0,0.5,0.2,1.1,0.5,1.4c0.4,0.5,1,0.8,1.6,0.7h1l0.4,6.8
		c0.1,2.9,2.5,5.2,5.4,5.1h4v-2.8h2.3v2.8h4c2.9,0,5.3-2.2,5.4-5.1l0.4-6.8h0.8c1.1,0,2-0.8,2-1.9c0,0,0,0,0,0v-0.2L959.4,831.9z
		 M952.3,837.4c-0.4,0.5-1,0.6-1.6,0.4c-3.1,2.2-7.3,2.2-10.4,0c-0.7,0.2-1.5-0.1-1.8-0.8c-0.2-0.5,0-1.1,0.4-1.5
		c0.5-0.5,1.3-0.5,1.8-0.1c0.1,0.1,0.1,0.1,0.2,0.2c0.3,0.3,0.3,0.8,0.2,1.2c2.6,1.8,6.1,1.8,8.7,0c-0.1-0.4,0-0.9,0.4-1.2
		c0.4-0.5,1.2-0.6,1.8-0.2c0.1,0,0.1,0.1,0.2,0.2c0.6,0.3,0.7,1,0.4,1.6C952.4,837.3,952.4,837.4,952.3,837.4z"/>
	
		<linearGradient id="Path_583_1_" gradientUnits="userSpaceOnUse" x1="28.1348" y1="1351.9644" x2="28.1348" y2="1352.9183" gradientTransform="matrix(23.07 0 0 -24.9518 298.8691 34579.9023)">
		<stop  offset="0" style="stop-color:#00D0FF"/>
		<stop  offset="1" style="stop-color:#57E7FF"/>
	</linearGradient>
	<path id="Path_583" class="st1" d="M959.4,831.9c0-0.1-0.1-0.2-0.1-0.3c-0.1-0.4-0.4-0.8-0.7-1.1l-11.6-9.9
		c-0.7-0.7-1.9-0.8-2.6-0.1c0,0,0,0,0,0l-7.8,6.6l10.7,10.7c0.9-0.2,1.8-0.6,2.6-1.1c-0.1-0.4,0-0.9,0.4-1.2
		c0.4-0.5,1.2-0.6,1.8-0.2c0.1,0,0.1,0.1,0.2,0.2c0.6,0.3,0.7,1,0.4,1.6c-0.1,0.1-0.1,0.2-0.2,0.2c-0.4,0.5-1,0.6-1.6,0.4
		c-0.8,0.5-1.6,1-2.5,1.2l6,6c1.3-1,2.1-2.4,2.1-4l0.4-6.8h0.8c1.1,0,2-0.8,2-1.9c0,0,0,0,0,0v-0.2L959.4,831.9z"/>
</g>
</svg>
