<?xml version="1.0" encoding="utf-8"?>
<!-- Generator: Adobe Illustrator 24.3.0, SVG Export Plug-In . SVG Version: 6.00 Build 0)  -->
<svg version="1.1" id="圖層_1" xmlns="http://www.w3.org/2000/svg" xmlns:xlink="http://www.w3.org/1999/xlink" x="0px" y="0px"
	 viewBox="0 0 28 28" style="enable-background:new 0 0 28 28;" xml:space="preserve">
<style type="text/css">
	.st0{fill:#ABBED3;}
</style>
<g id="Group_729" transform="translate(-902.25 -697.514)">
	<path id="Path_630" class="st0" d="M921.6,724.5h-4v-2.8h-2.3v2.8h-4c-2.9,0-5.3-2.2-5.4-5.1l-0.4-6.8h-1c-0.6,0-1.2-0.3-1.6-0.7
		c-0.4-0.4-0.6-0.9-0.5-1.4c0-0.6,0.3-1.1,0.8-1.5l11.8-10c0.7-0.7,1.9-0.7,2.6,0c0,0,0,0,0,0l11.6,9.9c0.3,0.3,0.6,0.6,0.7,1.1
		c0,0.1,0.1,0.2,0.1,0.3l0.1,0.2v0.2c0,1.1-0.9,1.9-2,1.9c0,0,0,0,0,0h-0.8l-0.4,6.8C926.9,722.3,924.5,724.6,921.6,724.5z
		 M919.4,722.7h2.2c1.9,0,3.5-1.5,3.6-3.4l0.5-8.5h2.5c0.1,0,0.1,0,0.2,0l0,0c0-0.1-0.1-0.2-0.2-0.3l-0.1,0l-11.7-10
		c-0.1-0.1-0.2-0.1-0.2,0l-11.9,10c-0.1,0-0.1,0.1-0.1,0.2c0,0.1,0,0.1,0.1,0.1l0.1,0.1c0,0,0.1,0,0.2,0h2.7l0.5,8.5
		c0.1,1.9,1.7,3.5,3.6,3.4h2.2V720h5.9L919.4,722.7z"/>
	<path id="Path_631" class="st0" d="M923,715.8c-0.4,0.5-1,0.6-1.6,0.4c-3.1,2.2-7.3,2.2-10.4,0c-0.7,0.2-1.5-0.1-1.8-0.8
		c-0.2-0.5,0-1.1,0.4-1.5c0.5-0.5,1.3-0.5,1.8-0.1c0.1,0.1,0.1,0.1,0.2,0.2c0.3,0.3,0.3,0.8,0.2,1.2c2.6,1.8,6.1,1.8,8.7,0
		c-0.1-0.4,0-0.9,0.4-1.2c0.4-0.5,1.2-0.6,1.8-0.2c0.1,0,0.1,0.1,0.2,0.2c0.6,0.3,0.7,1,0.4,1.6C923.1,715.7,923,715.8,923,715.8
		L923,715.8z"/>
</g>
</svg>
