<?xml version="1.0" encoding="utf-8"?>
<!-- Generator: Adobe Illustrator 24.3.0, SVG Export Plug-In . SVG Version: 6.00 Build 0)  -->
<svg version="1.1" id="圖層_1" xmlns="http://www.w3.org/2000/svg" xmlns:xlink="http://www.w3.org/1999/xlink" x="0px" y="0px"
	 viewBox="0 0 28 28" style="enable-background:new 0 0 28 28;" xml:space="preserve">
<style type="text/css">
	.st0{fill:url(#Ellipse_48_1_);}
	.st1{fill:url(#Path_620_1_);}
	.st2{fill:url(#Ellipse_49_1_);}
	.st3{fill:url(#Path_621_1_);}
</style>
<g id="Group_725" transform="translate(-1146.223 -780.435)">
	<g id="Group_723">
		
			<linearGradient id="Ellipse_48_1_" gradientUnits="userSpaceOnUse" x1="271.1985" y1="1296.1333" x2="272.2025" y2="1296.1333" gradientTransform="matrix(13.454 0 0 -13.454 -2495.2354 18226.6348)">
			<stop  offset="0" style="stop-color:#00DCFF"/>
			<stop  offset="1" style="stop-color:#00C2FF"/>
		</linearGradient>
		<circle id="Ellipse_48" class="st0" cx="1160.2" cy="788.5" r="6.7"/>
		
			<linearGradient id="Path_620_1_" gradientUnits="userSpaceOnUse" x1="238.9727" y1="1286.7343" x2="239.9767" y2="1286.7343" gradientTransform="matrix(24.8152 0 0 -10.8464 -4782.3853 14758.1982)">
			<stop  offset="0" style="stop-color:#00DCFF"/>
			<stop  offset="1" style="stop-color:#00C2FF"/>
		</linearGradient>
		<path id="Path_620" class="st1" d="M1172.4,803.4c-3.8-6.7-12.3-9.1-19-5.3c-2.2,1.2-4,3.1-5.3,5.3c-0.6,1.3-0.1,2.8,1.1,3.5
			c0.4,0.2,0.8,0.3,1.2,0.3h19.6c1.4,0,2.6-1.2,2.6-2.6C1172.6,804.1,1172.5,803.7,1172.4,803.4L1172.4,803.4z"/>
	</g>
	<g id="Group_724">
		
			<linearGradient id="Ellipse_49_1_" gradientUnits="userSpaceOnUse" x1="162.2163" y1="1263.4315" x2="162.2163" y2="1265.1644" gradientTransform="matrix(8.238200e-16 -13.454 -13.454 -8.238200e-16 18177.4023 2970.9143)">
			<stop  offset="0" style="stop-color:#00D0FF"/>
			<stop  offset="1" style="stop-color:#57E7FF"/>
		</linearGradient>
		<circle id="Ellipse_49" class="st2" cx="1160.2" cy="788.5" r="6.7"/>
		
			<linearGradient id="Path_621_1_" gradientUnits="userSpaceOnUse" x1="266.7469" y1="1286.2009" x2="266.7469" y2="1288.3508" gradientTransform="matrix(14.4725 0 0 -10.8448 -2695.1084 14755.9951)">
			<stop  offset="0" style="stop-color:#00D0FF"/>
			<stop  offset="1" style="stop-color:#57E7FF"/>
		</linearGradient>
		<path id="Path_621" class="st3" d="M1172.4,803.4c-2.4-4.4-7.1-7.2-12.1-7.1c-0.7,0-1.4,0.1-2.1,0.2l10.7,10.7h1.2
			c1.4,0,2.6-1.2,2.6-2.6C1172.6,804.1,1172.5,803.7,1172.4,803.4L1172.4,803.4z"/>
	</g>
</g>
</svg>
