<?xml version="1.0" encoding="utf-8"?>
<!-- Generator: Adobe Illustrator 24.3.0, SVG Export Plug-In . SVG Version: 6.00 Build 0)  -->
<svg version="1.1" id="圖層_1" xmlns="http://www.w3.org/2000/svg" xmlns:xlink="http://www.w3.org/1999/xlink" x="0px" y="0px"
	 viewBox="0 0 28 28" style="enable-background:new 0 0 28 28;" xml:space="preserve">
<style type="text/css">
	.st0{fill:url(#Rectangle_506_1_);}
	.st1{fill:url(#Path_635_1_);}
	.st2{fill:url(#Path_636_1_);}
	.st3{fill:url(#Rectangle_507_1_);}
	.st4{fill:url(#Path_637_1_);}
	.st5{fill:url(#Rectangle_508_1_);}
	.st6{fill:url(#Path_638_1_);}
	.st7{fill:url(#Path_639_1_);}
	.st8{fill:url(#Path_640_1_);}
</style>
<g id="Group_734" transform="translate(-972.388 -819.527)">
	<g id="Group_732">
		
			<linearGradient id="Rectangle_506_1_" gradientUnits="userSpaceOnUse" x1="220.8505" y1="1294.6364" x2="226.6105" y2="1291.1564" gradientTransform="matrix(4.79 0 0 -6.41 -81.1676 9115.7021)">
			<stop  offset="0" style="stop-color:#00DCFF"/>
			<stop  offset="1" style="stop-color:#00C2FF"/>
		</linearGradient>
		<rect id="Rectangle_506" x="995.5" y="831" class="st0" width="4.8" height="6.4"/>
		
			<linearGradient id="Path_635_1_" gradientUnits="userSpaceOnUse" x1="99.9838" y1="1352.2786" x2="102.1058" y2="1351.3365" gradientTransform="matrix(13 0 0 -23.694 -329.85 32866.3789)">
			<stop  offset="0" style="stop-color:#00DCFF"/>
			<stop  offset="1" style="stop-color:#00C2FF"/>
		</linearGradient>
		<path id="Path_635" class="st1" d="M981.4,834.2c0-2.4,1.7-4.5,4.1-4.9v-7.6h-10.1c-1.6,0-2.9,1.3-2.9,2.9v0v4.6h6.6v10h-6.6v3.3
			c0,1.6,1.3,2.9,2.9,2.9h0h10.1v-6.2C983.1,838.7,981.4,836.6,981.4,834.2z"/>
		
			<linearGradient id="Path_636_1_" gradientUnits="userSpaceOnUse" x1="99.2279" y1="1352.5455" x2="101.3499" y2="1351.6045" gradientTransform="matrix(13.002 0 0 -23.695 -315.1036 32867.7188)">
			<stop  offset="0" style="stop-color:#00DCFF"/>
			<stop  offset="1" style="stop-color:#00C2FF"/>
		</linearGradient>
		<path id="Path_636" class="st2" d="M997.4,821.7h-10.1v7.6c2.7,0.5,4.5,3.1,4,5.8c-0.4,2.1-2,3.7-4,4v6.2h10.1
			c1.6,0,2.9-1.3,2.9-2.9v0v-3.3h-6.6v-10h6.6v-4.6C1000.3,823,999,821.7,997.4,821.7C997.4,821.7,997.4,821.7,997.4,821.7z"/>
		
			<linearGradient id="Rectangle_507_1_" gradientUnits="userSpaceOnUse" x1="223.7967" y1="1292.8812" x2="229.5567" y2="1289.4012" gradientTransform="matrix(4.789 0 0 -6.41 -104.1501 9115.7021)">
			<stop  offset="0" style="stop-color:#00DCFF"/>
			<stop  offset="1" style="stop-color:#00C2FF"/>
		</linearGradient>
		<rect id="Rectangle_507" x="972.5" y="831" class="st3" width="4.8" height="6.4"/>
		
			<linearGradient id="Path_637_1_" gradientUnits="userSpaceOnUse" x1="173.4229" y1="1293.6307" x2="177.7279" y2="1290.1508" gradientTransform="matrix(6.4 0 0 -6.4 -137.7292 9101.9941)">
			<stop  offset="0" style="stop-color:#00DCFF"/>
			<stop  offset="1" style="stop-color:#00C2FF"/>
		</linearGradient>
		<path id="Path_637" class="st4" d="M989.6,834.2c0-1.8-1.4-3.2-3.2-3.2c-1.8,0-3.2,1.4-3.2,3.2c0,1.8,1.4,3.2,3.2,3.2
			C988.2,837.4,989.6,836,989.6,834.2z"/>
	</g>
	<g id="Group_733">
		
			<linearGradient id="Rectangle_508_1_" gradientUnits="userSpaceOnUse" x1="225.2734" y1="1290.2312" x2="225.2734" y2="1293.6501" gradientTransform="matrix(4.79 0 0 -6.41 -81.1676 9115.709)">
			<stop  offset="0" style="stop-color:#00D0FF"/>
			<stop  offset="1" style="stop-color:#57E7FF"/>
		</linearGradient>
		<rect id="Rectangle_508" x="995.5" y="831" class="st5" width="4.8" height="6.4"/>
		
			<linearGradient id="Path_638_1_" gradientUnits="userSpaceOnUse" x1="111.3062" y1="1313.5723" x2="111.3062" y2="1316.0033" gradientTransform="matrix(11.342 0 0 -9.011 -282.6172 12681.9043)">
			<stop  offset="0" style="stop-color:#00D0FF"/>
			<stop  offset="1" style="stop-color:#57E7FF"/>
		</linearGradient>
		<path id="Path_638" class="st6" d="M985.5,821.7h-10.1c-0.4,0-0.9,0.1-1.2,0.3l8.7,8.7c0.7-0.7,1.6-1.2,2.6-1.4V821.7z"/>
		
			<linearGradient id="Path_639_1_" gradientUnits="userSpaceOnUse" x1="100.6688" y1="1351.4264" x2="100.6688" y2="1352.3513" gradientTransform="matrix(13.002 0 0 -23.6799 -315.1036 32847.0039)">
			<stop  offset="0" style="stop-color:#00D0FF"/>
			<stop  offset="1" style="stop-color:#57E7FF"/>
		</linearGradient>
		<path id="Path_639" class="st7" d="M997.4,821.7h-10.1v7.6c2.4,0.4,4.1,2.5,4.1,4.9c0,1.3-0.5,2.6-1.5,3.5l7.6,7.6
			c1.5-0.1,2.7-1.3,2.8-2.9v-3.3h-6.6v-10h6.6v-4.6C1000.3,823,999,821.7,997.4,821.7C997.4,821.7,997.4,821.7,997.4,821.7z"/>
		
			<linearGradient id="Path_640_1_" gradientUnits="userSpaceOnUse" x1="200.5736" y1="1275.7205" x2="200.5736" y2="1279.7264" gradientTransform="matrix(5.4755 0 0 -5.4701 -111.387 7823.6377)">
			<stop  offset="0" style="stop-color:#00D0FF"/>
			<stop  offset="1" style="stop-color:#57E7FF"/>
		</linearGradient>
		<path id="Path_640" class="st8" d="M986.4,831c-0.9,0-1.7,0.3-2.3,0.9l4.5,4.5c1.3-1.2,1.3-3.3,0-4.5
			C988.1,831.4,987.2,831,986.4,831L986.4,831z"/>
	</g>
</g>
</svg>
