<svg xmlns="http://www.w3.org/2000/svg" xmlns:xlink="http://www.w3.org/1999/xlink" width="25" height="21.444" viewBox="0 0 25 21.444">
  <defs>
    <linearGradient id="linear-gradient" x1="0.5" y1="0.001" x2="0.5" y2="3.154" gradientUnits="objectBoundingBox">
      <stop offset="0" stop-color="#c2c9d1"/>
      <stop offset="1" stop-color="#9fa4ab"/>
    </linearGradient>
    <linearGradient id="linear-gradient-2" x1="0.5" y1="-0.269" x2="0.5" y2="1.038" xlink:href="#linear-gradient"/>
  </defs>
  <g id="Group_719" data-name="Group 719" transform="translate(-1207.796 -967.677)">
    <g id="Group_717" data-name="Group 717">
      <path id="Path_615" data-name="Path 615" d="M1222.095,970.725a11.718,11.718,0,0,1,4.745,1,9.883,9.883,0,0,0-8.137-4.049c-5.305,0-9.608,3.856-9.608,8.613a7.956,7.956,0,0,0,1.637,4.807,14.5,14.5,0,0,1-2.607,2.367.794.794,0,0,0,.455,1.437,15.176,15.176,0,0,0,3.479-.3,9.13,9.13,0,0,1-.89-3.924C1211.169,975.187,1216.07,970.725,1222.095,970.725Z" fill="#9fa4ab"/>
      <path id="Path_616" data-name="Path 616" d="M1232.472,987.709a14.262,14.262,0,0,1-2.557-2.32,7.808,7.808,0,0,0,1.6-4.716c0-4.667-4.219-8.449-9.425-8.449s-9.425,3.781-9.425,8.448,4.219,8.449,9.425,8.449a10.24,10.24,0,0,0,4.5-1.025,10.762,10.762,0,0,0,5.429,1.023.778.778,0,0,0,.446-1.41Zm-7.962-.909c-.538.212-.966.374-1.288.485a3.386,3.386,0,0,1-1.117.168,2.23,2.23,0,0,1-1.519-.476,1.539,1.539,0,0,1-.54-1.21,4.38,4.38,0,0,1,.039-.583c.027-.2.071-.421.131-.671l.673-2.383c.06-.228.11-.445.152-.646a2.925,2.925,0,0,0,.06-.56.862.862,0,0,0-.187-.635,1.067,1.067,0,0,0-.72-.177,1.867,1.867,0,0,0-.535.079c-.181.056-.338.107-.468.159l.178-.733q.662-.269,1.265-.461a3.758,3.758,0,0,1,1.142-.193,2.185,2.185,0,0,1,1.5.468,1.562,1.562,0,0,1,.525,1.218q0,.155-.036.546a3.694,3.694,0,0,1-.134.715l-.67,2.371a6.526,6.526,0,0,0-.147.651,3.469,3.469,0,0,0-.066.556.794.794,0,0,0,.212.644,1.191,1.191,0,0,0,.732.171,2.139,2.139,0,0,0,.556-.085,3.093,3.093,0,0,0,.447-.151Zm-.024-9.72c-.03.033-.062.065-.095.095a1.686,1.686,0,0,1-2.261,0,1.42,1.42,0,0,1-.108-2.006,1.388,1.388,0,0,1,.108-.108,1.672,1.672,0,0,1,2.261,0A1.428,1.428,0,0,1,1224.486,977.08Z" fill="#9fa4ab"/>
    </g>
    <g id="Group_718" data-name="Group 718">
      <path id="Path_617" data-name="Path 617" d="M1222.095,970.725a11.718,11.718,0,0,1,4.745,1,10.2,10.2,0,0,0-16.327.077l2.879,2.879A11.3,11.3,0,0,1,1222.095,970.725Z" fill="url(#linear-gradient)"/>
      <path id="Path_618" data-name="Path 618" d="M1220.889,982.13c.06-.228.11-.445.152-.646a2.925,2.925,0,0,0,.06-.56.862.862,0,0,0-.187-.635,1.067,1.067,0,0,0-.72-.177,1.867,1.867,0,0,0-.535.079c-.181.056-.338.107-.468.159l.178-.733q.662-.269,1.265-.461a3.758,3.758,0,0,1,1.142-.193,2.185,2.185,0,0,1,1.5.468,1.562,1.562,0,0,1,.525,1.218q0,.155-.036.546a3.694,3.694,0,0,1-.134.715l-.663,2.346,4.05,4.05a11.7,11.7,0,0,0,5.01.813.778.778,0,0,0,.446-1.41,14.262,14.262,0,0,1-2.557-2.32,7.808,7.808,0,0,0,1.6-4.716c0-4.667-4.219-8.449-9.425-8.449a9.778,9.778,0,0,0-7.643,3.517l6.427,6.427Zm1.133-6.961a1.388,1.388,0,0,1,.108-.108,1.672,1.672,0,0,1,2.261,0,1.428,1.428,0,0,1,.095,2.019c-.03.033-.062.065-.095.095a1.686,1.686,0,0,1-2.261,0A1.42,1.42,0,0,1,1222.022,975.169Z" fill="url(#linear-gradient-2)"/>
    </g>
  </g>
</svg>
