<svg id="Group_708" data-name="Group 708" xmlns="http://www.w3.org/2000/svg" xmlns:xlink="http://www.w3.org/1999/xlink" width="30.544" height="28.75" viewBox="0 0 30.544 28.75">
  <defs>
    <linearGradient id="linear-gradient" y1="0.5" x2="1" y2="0.5" gradientUnits="objectBoundingBox">
      <stop offset="0" stop-color="#2edc8f"/>
      <stop offset="1" stop-color="#41d99a"/>
    </linearGradient>
    <linearGradient id="linear-gradient-2" x1="0" y1="0.5" x2="1" y2="0.5" xlink:href="#linear-gradient"/>
    <linearGradient id="linear-gradient-5" y1="0.5" x2="1" y2="0.5" gradientUnits="objectBoundingBox">
      <stop offset="0" stop-color="#7bdcb2"/>
      <stop offset="1" stop-color="#41d99a"/>
    </linearGradient>
  </defs>
  <path id="Path_600" data-name="Path 600" d="M1137.643,978.132v-1.8a3.551,3.551,0,0,0,3.547-3.547v-4.459a.213.213,0,0,0-.212-.213h-3.335v-1.8h3.335a2.015,2.015,0,0,1,2.013,2.013v4.459A5.355,5.355,0,0,1,1137.643,978.132Z" transform="translate(-1112.447 -963.345)" fill="url(#linear-gradient)"/>
  <path id="Path_601" data-name="Path 601" d="M1117.8,978.132a5.355,5.355,0,0,1-5.348-5.348v-4.459a2.016,2.016,0,0,1,2.013-2.013h3.335v1.8h-3.335a.213.213,0,0,0-.212.213v4.459a3.551,3.551,0,0,0,3.547,3.547Z" transform="translate(-1112.447 -963.345)" fill="url(#linear-gradient-2)"/>
  <rect id="Rectangle_502" data-name="Rectangle 502" width="4.56" height="4.56" transform="translate(13.146 21.816)" fill="url(#linear-gradient-2)"/>
  <path id="Rectangle_503" data-name="Rectangle 503" d="M1.113,0H11.658a1.113,1.113,0,0,1,1.113,1.113V2.375a0,0,0,0,1,0,0H0a0,0,0,0,1,0,0V1.113A1.113,1.113,0,0,1,1.113,0Z" transform="translate(9.041 26.376)" fill="url(#linear-gradient-2)"/>
  <path id="Rectangle_504" data-name="Rectangle 504" d="M1.113,0H19.028a1.113,1.113,0,0,1,1.113,1.113V12.774a10.07,10.07,0,0,1-10.07,10.07h0A10.07,10.07,0,0,1,0,12.774V1.113A1.113,1.113,0,0,1,1.113,0Z" transform="translate(5.356)" fill="url(#linear-gradient-5)"/>
  <path id="Path_602" data-name="Path 602" d="M1126.8,982.759" transform="translate(-1112.447 -963.345)" fill="none" stroke="#707070" stroke-linecap="round" stroke-miterlimit="10" stroke-width="1.8"/>
  <path id="Path_603" data-name="Path 603" d="M1131.27,983.709a.6.6,0,0,1-.261-1.142,7.166,7.166,0,0,0,3.947-5.2.607.607,0,0,1,.694-.487.6.6,0,0,1,.488.694,8.373,8.373,0,0,1-4.608,6.076A.605.605,0,0,1,1131.27,983.709Z" transform="translate(-1112.447 -963.345)" fill="#bdffdf"/>
  <path id="Path_473" data-name="Path 473" d="M1128.253,968.713l1.124,3.461h3.637a.4.4,0,0,1,.394.4.4.4,0,0,1-.162.318l-2.941,2.133,1.123,3.461a.4.4,0,0,1-.609.443l-2.942-2.138-2.943,2.14a.4.4,0,0,1-.61-.443l1.12-3.463-2.943-2.138a.4.4,0,0,1,.232-.716h3.638l1.123-3.46a.4.4,0,0,1,.759,0Z" transform="translate(-1112.447 -963.345)" fill="#fff" style="isolation: isolate"/>
</svg>
