<svg xmlns="http://www.w3.org/2000/svg" xmlns:xlink="http://www.w3.org/1999/xlink" width="19.681" height="25" viewBox="0 0 19.681 25">
  <defs>
    <linearGradient id="linear-gradient" x1="0.5" y1="0.013" x2="0.5" y2="1.456" gradientUnits="objectBoundingBox">
      <stop offset="0" stop-color="#c2c9d1"/>
      <stop offset="1" stop-color="#9fa4ab"/>
    </linearGradient>
  </defs>
  <g id="Group_720" data-name="Group 720" transform="translate(-1163.663 -999.936)">
    <path id="Path_612" data-name="Path 612" d="M1169.454,1020.209h8.2a.781.781,0,1,1,0,1.561h-8.2a.781.781,0,1,1,0-1.561Z" fill="#9fa4ab"/>
    <path id="Path_613" data-name="Path 613" d="M1180.448,1002.69a9.753,9.753,0,0,0-6.971-2.754,9.648,9.648,0,0,0-6.944,2.754,8.844,8.844,0,0,0-2.87,6.6,9.933,9.933,0,0,0,.051,1.073c0,.06.051.182.051.241a6.865,6.865,0,0,0,.154.877l.025.074a.579.579,0,0,0,.025.073c.1.329.206.622.309.877v.049c0,.037.012.049.051.049a8.584,8.584,0,0,0,.41.926c0,.037.013.049.051.049a11.22,11.22,0,0,0,1.23,1.8l.026.025.026.024.717.682c.1.1.154.146.154.146l.2.2.154.1.486.363.077.074a.138.138,0,0,0,.1.049,2.685,2.685,0,0,1,.641.779,2.388,2.388,0,0,0,.436.634,1.115,1.115,0,0,0,.768.194h7.38a1.12,1.12,0,0,0,.769-.194,2.166,2.166,0,0,0,.41-.634,2.124,2.124,0,0,1,.667-.779l.076-.049.1-.074.487-.363c0-.063.09-.1.153-.1.142-.134.154-.208.283-.294.051-.034.076-.048.076-.048a7.427,7.427,0,0,0,.718-.682l.026-.024.024-.025c.244-.293.463-.583.667-.877a7.512,7.512,0,0,0,.564-.926c.039,0,.051-.014.051-.049a8.363,8.363,0,0,0,.411-.926l.051-.049v-.049c.1-.255.2-.548.308-.877,0-.059-.013-.147.05-.147l.154-.877c0-.059-.012-.181.052-.243a10.093,10.093,0,0,0,.051-1.071A8.776,8.776,0,0,0,1180.448,1002.69Zm-1.153,6.7a.815.815,0,0,1-.82-.781,3.641,3.641,0,0,0-1.307-2.85,4.155,4.155,0,0,0-2.793-1.146.781.781,0,1,1,0-1.559,5.926,5.926,0,0,1,4,1.51,5.067,5.067,0,0,1,1.743,4.045A.815.815,0,0,1,1179.3,1009.392Z" fill="#9fa4ab"/>
    <path id="Rectangle_505" data-name="Rectangle 505" d="M0,0H7.431a0,0,0,0,1,0,0V0A1.607,1.607,0,0,1,5.824,1.607H1.607A1.607,1.607,0,0,1,0,0V0A0,0,0,0,1,0,0Z" transform="translate(1169.813 1023.328)" fill="#9fa4ab"/>
    <path id="Path_614" data-name="Path 614" d="M1179.218,1016.919l.487-.363c0-.063.09-.1.153-.1.142-.134.154-.208.283-.294.051-.034.076-.048.076-.048a7.427,7.427,0,0,0,.718-.682l.026-.024.024-.025c.244-.293.463-.583.667-.877a7.512,7.512,0,0,0,.564-.926c.039,0,.051-.014.051-.049a8.363,8.363,0,0,0,.411-.926l.051-.049v-.049c.1-.255.2-.548.308-.877,0-.059-.013-.147.05-.147l.154-.877c0-.059-.012-.181.052-.243a10.093,10.093,0,0,0,.051-1.071,8.776,8.776,0,0,0-2.9-6.6,9.753,9.753,0,0,0-6.971-2.754,9.648,9.648,0,0,0-6.944,2.754,10.482,10.482,0,0,0-.819.894l13.406,13.405Zm-2.05-11.158a4.155,4.155,0,0,0-2.793-1.146.781.781,0,1,1,0-1.559,5.926,5.926,0,0,1,4,1.51,5.067,5.067,0,0,1,1.743,4.045.821.821,0,0,1-1.64,0A3.641,3.641,0,0,0,1177.168,1005.761Z" fill="url(#linear-gradient)"/>
  </g>
</svg>
