<svg xmlns="http://www.w3.org/2000/svg" xmlns:xlink="http://www.w3.org/1999/xlink" width="21.417" height="25" viewBox="0 0 21.417 25">
  <defs>
    <linearGradient id="linear-gradient" x1="0.5" y1="0.005" x2="0.5" y2="1.003" gradientUnits="objectBoundingBox">
      <stop offset="0" stop-color="#c2c9d1"/>
      <stop offset="1" stop-color="#9fa4ab"/>
    </linearGradient>
  </defs>
  <g id="Group_714" data-name="Group 714" transform="translate(-1164.941 -922.29)">
    <path id="Path_607" data-name="Path 607" d="M1173.073,946.276a3.768,3.768,0,0,0,6.391-2.572h-7.531A3.675,3.675,0,0,0,1173.073,946.276Z" fill="#9fa4ab"/>
    <path id="Path_608" data-name="Path 608" d="M1186.187,940.754a1.131,1.131,0,0,0-1.078-.526c-1.217,0-1.217-4.48-1.217-4.48v-2.819a8.7,8.7,0,0,0-5.953-8.375c0-.012-.04-.022-.113-.031,0-.019,0-.037,0-.056a2.177,2.177,0,0,0-4.354,0c0,.02,0,.04,0,.059-.112.012-.175.025-.174.04a8.935,8.935,0,0,0-5.953,8.376v2.769s0,4.48-1.157,4.517a1.132,1.132,0,1,0,0,2.252h18.919a1.132,1.132,0,0,0,1.078-1.726Z" fill="#9fa4ab"/>
    <path id="Path_609" data-name="Path 609" d="M1185.109,942.48a1.132,1.132,0,1,0,0-2.252c-1.217,0-1.217-4.48-1.217-4.48v-2.819a8.7,8.7,0,0,0-5.953-8.375c0-.012-.04-.022-.113-.031,0-.019,0-.037,0-.056a2.177,2.177,0,0,0-4.354,0c0,.02,0,.04,0,.059-.112.012-.175.025-.174.04a8.917,8.917,0,0,0-4.864,4.181l13.734,13.733Z" fill="url(#linear-gradient)"/>
  </g>
</svg>
