<svg xmlns="http://www.w3.org/2000/svg" xmlns:xlink="http://www.w3.org/1999/xlink" width="24.972" height="18.682" viewBox="0 0 24.972 18.682">
  <defs>
    <linearGradient id="linear-gradient" y1="0.5" x2="1" y2="0.5" gradientUnits="objectBoundingBox">
      <stop offset="0" stop-color="#c2c9d1"/>
      <stop offset="1" stop-color="#9fa4ab"/>
    </linearGradient>
  </defs>
  <g id="Group_715" data-name="Group 715" transform="translate(-1163.194 -1013.572)">
    <path id="Path_610" data-name="Path 610" d="M1185.288,1013.572H1166.07a2.876,2.876,0,0,0-2.876,2.876v12.932a2.875,2.875,0,0,0,2.876,2.874h19.22a2.877,2.877,0,0,0,2.876-2.874v-12.928a2.88,2.88,0,0,0-2.878-2.88Zm-6.1,5.707h3.993c.316,0,.609.43.609.747s-.293.749-.609.749h-3.993c-.316,0-.608-.431-.608-.749s.29-.747.608-.747Zm0,3.2h3.993c.316,0,.609.431.609.75s-.293.747-.609.747h-3.993c-.316,0-.608-.431-.608-.747s.29-.75.608-.75Zm-13.031,5.564a.575.575,0,0,1-.457-.672,5.133,5.133,0,0,1,3.642-3.952,3.009,3.009,0,1,1,2.819,0,5.121,5.121,0,0,1,3.641,3.971.574.574,0,0,1-.457.67h0a.565.565,0,0,1-.108.009m9.864-.89h-5.911c-.316,0-.608-.431-.608-.747s.292-.747.608-.747h5.906c.316,0,.609.431.609.747s-.293.747-.609.747Zm0,0" fill="#9fa4ab"/>
    <path id="Path_611" data-name="Path 611" d="M1170.748,1017.764a2.972,2.972,0,0,1,2.924,3.678l4.919,4.918c.037-.306.3-.677.6-.677h5.9c.316,0,.609.431.609.747s-.293.747-.609.747h-5.683l5.076,5.077h.806a2.877,2.877,0,0,0,2.876-2.874v-12.928a2.88,2.88,0,0,0-2.878-2.88H1166.07c-.083,0-.161.018-.243.025l4.249,4.249A2.978,2.978,0,0,1,1170.748,1017.764Zm8.438,1.515h3.992c.316,0,.609.43.609.747s-.293.749-.609.749h-3.992c-.317,0-.609-.431-.609-.749S1178.867,1019.279,1179.186,1019.279Zm0,3.2h3.992c.316,0,.609.431.609.75s-.293.747-.609.747h-3.992c-.317,0-.609-.431-.609-.747S1178.867,1022.477,1179.186,1022.477Z" fill="url(#linear-gradient)"/>
  </g>
</svg>
