<svg id="Group_78" data-name="Group 78" xmlns="http://www.w3.org/2000/svg" xmlns:xlink="http://www.w3.org/1999/xlink" width="33.5" height="25.709" viewBox="0 0 33.5 25.709">
  <defs>
    <linearGradient id="linear-gradient" x1="0.5" y1="-0.746" x2="0.5" y2="1.828" gradientUnits="objectBoundingBox">
      <stop offset="0" stop-color="#e4b0ff"/>
      <stop offset="1" stop-color="#d38aff"/>
    </linearGradient>
    <linearGradient id="linear-gradient-2" x1="0.5" y1="-0.016" x2="0.5" y2="0.998" gradientUnits="objectBoundingBox">
      <stop offset="0" stop-color="#d395fe"/>
      <stop offset="1" stop-color="#a687f7"/>
    </linearGradient>
  </defs>
  <path id="Rectangle_24" data-name="Rectangle 24" d="M4,0h9.229a4,4,0,0,1,4,4V7.657a0,0,0,0,1,0,0H0a0,0,0,0,1,0,0V4A4,4,0,0,1,4,0Z" transform="translate(0 25.709) rotate(-90)" fill="url(#linear-gradient)"/>
  <path id="Path_62" data-name="Path 62" d="M-303.512,463h-21.035a3.116,3.116,0,0,0-3.116,3.116v19.477A3.11,3.11,0,0,1-330,488.6v.11h26.488a3.116,3.116,0,0,0,3.116-3.116V466.116A3.116,3.116,0,0,0-303.512,463Z" transform="translate(333.895 -463)" fill="url(#linear-gradient-2)"/>
  <g id="Group_77" data-name="Group 77" transform="translate(14.8 2.977)">
    <path id="Path_63" data-name="Path 63" d="M-308.113,480.863a2.391,2.391,0,0,0-.16-.885,2.2,2.2,0,0,0-.517-.756,3.889,3.889,0,0,0-.928-.651,9.515,9.515,0,0,0-1.4-.576,11.256,11.256,0,0,1-1.818-.72,5.486,5.486,0,0,1-1.37-.965,3.788,3.788,0,0,1-.864-1.279,4.373,4.373,0,0,1-.3-1.673,4.687,4.687,0,0,1,.266-1.616,3.766,3.766,0,0,1,.762-1.268,3.888,3.888,0,0,1,1.2-.874,5.084,5.084,0,0,1,1.589-.443v-1.54a.794.794,0,0,1,.794-.795h0a.8.8,0,0,1,.795.795v1.551a4.112,4.112,0,0,1,2.788,1.5,4.73,4.73,0,0,1,.927,2.35.983.983,0,0,1-.984,1.095h0a1,1,0,0,1-.977-.861,4.107,4.107,0,0,0-.1-.451,3.07,3.07,0,0,0-.506-1.035,2.349,2.349,0,0,0-.832-.682,2.527,2.527,0,0,0-1.135-.245,3.377,3.377,0,0,0-1.162.181,2.174,2.174,0,0,0-.81.507,2.075,2.075,0,0,0-.48.784,3.051,3.051,0,0,0-.16,1.012,2.688,2.688,0,0,0,.149.923,2,2,0,0,0,.5.751,3.952,3.952,0,0,0,.938.645,9.854,9.854,0,0,0,1.472.592,12.28,12.28,0,0,1,1.823.741,5.414,5.414,0,0,1,1.349.954,3.7,3.7,0,0,1,.837,1.258,4.4,4.4,0,0,1,.287,1.652,4.542,4.542,0,0,1-.287,1.663,3.637,3.637,0,0,1-.827,1.269,4.05,4.05,0,0,1-1.3.852,5.923,5.923,0,0,1-1.7.416v1.248a.788.788,0,0,1-.789.788h0a.788.788,0,0,1-.788-.788v-1.248a5.77,5.77,0,0,1-1.584-.373,4.109,4.109,0,0,1-1.353-.863,4.046,4.046,0,0,1-.944-1.434,4.674,4.674,0,0,1-.278-1.045.922.922,0,0,1,.92-1.039h.126a.942.942,0,0,1,.915.809,2.9,2.9,0,0,0,.2.694,2.516,2.516,0,0,0,.7.949,2.522,2.522,0,0,0,.959.491,4.187,4.187,0,0,0,1.061.139,4.206,4.206,0,0,0,1.269-.176,2.686,2.686,0,0,0,.938-.5,2.143,2.143,0,0,0,.587-.788A2.577,2.577,0,0,0-308.113,480.863Z" transform="translate(316.003 -466.821)" fill="#fff"/>
  </g>
</svg>
